<svg width="307" height="154" viewBox="0 0 307 154" fill="none" xmlns="http://www.w3.org/2000/svg">
<g filter="url(#filter0_d_9915_755)">
<rect x="5" y="2.36621" width="297" height="144.613" rx="12.4398" fill="white" shape-rendering="crispEdges"/>
<rect x="5.38874" y="2.75495" width="296.223" height="143.835" rx="12.051" stroke="#EFEFF9" stroke-width="0.777487" shape-rendering="crispEdges"/>
<path d="M26.9474 30.0259H25.8481L23.8235 22.7331H24.912L26.0222 27.2503L26.3814 29.1442L26.8386 27.272L28.1557 22.7331H29.353L30.6483 27.272L31.0946 29.1442L31.4646 27.2503L32.5967 22.7331H33.6634L31.617 30.0259H30.5177L29.1788 25.291L28.7325 23.5168L28.2972 25.291L26.9474 30.0259ZM35.2581 30.1347C34.3655 30.1347 33.8648 29.6231 33.8648 28.9265C33.8648 28.219 34.3982 27.7727 35.1492 27.4353L37.0541 26.5863C37.0214 25.9658 36.7275 25.5087 35.9003 25.5087C35.1492 25.5087 34.6485 25.9441 34.3764 26.521L33.7342 25.857C34.0499 25.3128 34.8336 24.6488 36.0091 24.6488C37.3044 24.6488 38.0011 25.4216 38.0011 26.6734V28.8394C38.0011 29.0898 38.099 29.166 38.2949 29.166H38.6324V30.0259H38.0228C37.4786 30.0259 37.0867 29.7646 37.0867 29.0245V28.6544C36.9126 29.351 36.3466 30.1347 35.2581 30.1347ZM34.8227 28.7741C34.8227 29.1333 35.073 29.351 35.5629 29.351C36.4554 29.351 37.0867 28.7632 37.0867 28.0013V27.272L35.552 27.9904C35.0513 28.2299 34.8227 28.4476 34.8227 28.7741ZM40.6759 30.0259H39.7289V22.7331H40.6759V30.0259ZM43.0463 30.0259H42.0994V22.7331H43.0463V30.0259ZM46.7121 30.1347C45.2208 30.1347 44.1868 29.068 44.1868 27.3918C44.1868 25.7264 45.21 24.6488 46.6576 24.6488C48.1489 24.6488 49.0523 25.6393 49.0523 27.1849C49.0523 27.3482 49.0305 27.5115 49.0088 27.6094H45.1011C45.1555 28.7197 45.776 29.351 46.7121 29.351C47.7679 29.351 48.1924 28.7741 48.3992 28.317L48.9761 28.9701C48.5842 29.6014 47.855 30.1347 46.7121 30.1347ZM46.6576 25.4434C45.8086 25.4434 45.2426 25.9441 45.1229 26.9237H48.2033C48.1053 25.955 47.5393 25.4434 46.6576 25.4434ZM51.9306 30.1456C51.0707 30.1456 50.4612 29.5796 50.4612 28.6762V25.4978H49.6122V24.7576H50.4612V24.0828L51.4082 23.3861V24.7576H53.1389V25.4978H51.4082V28.3932C51.4082 29.068 51.7238 29.2313 52.1375 29.2313C52.6055 29.2313 52.932 28.8394 53.0736 28.5129L53.3892 29.449C53.1606 29.8082 52.6599 30.1456 51.9306 30.1456ZM59.7756 30.0259H56.7496V22.7331H59.83C61.2233 22.7331 61.9635 23.4841 61.9635 24.5944C61.9635 25.3781 61.4519 26.0856 60.2328 26.2162C61.7567 26.3795 62.29 27.1305 62.29 28.0666C62.29 29.3075 61.3539 30.0259 59.7756 30.0259ZM59.5035 23.5712H57.6966V25.857H59.547C60.3852 25.857 60.9838 25.5958 60.9838 24.7141C60.9838 23.8433 60.3743 23.5712 59.5035 23.5712ZM59.6559 26.706H57.6966V29.1877H59.6232C60.777 29.1877 61.3104 28.8177 61.3104 27.9469C61.3104 27.0652 60.6029 26.706 59.6559 26.706ZM64.6705 30.1347C63.7779 30.1347 63.2772 29.6231 63.2772 28.9265C63.2772 28.219 63.8106 27.7727 64.5616 27.4353L66.4665 26.5863C66.4338 25.9658 66.1399 25.5087 65.3127 25.5087C64.5616 25.5087 64.0609 25.9441 63.7888 26.521L63.1466 25.857C63.4623 25.3128 64.246 24.6488 65.4215 24.6488C66.7168 24.6488 67.4134 25.4216 67.4134 26.6734V28.8394C67.4134 29.0898 67.5114 29.166 67.7073 29.166H68.0448V30.0259H67.4352C66.891 30.0259 66.4991 29.7646 66.4991 29.0245V28.6544C66.325 29.351 65.759 30.1347 64.6705 30.1347ZM64.2351 28.7741C64.2351 29.1333 64.4854 29.351 64.9752 29.351C65.8678 29.351 66.4991 28.7632 66.4991 28.0013V27.272L64.9644 27.9904C64.4637 28.2299 64.2351 28.4476 64.2351 28.7741ZM70.0883 30.0259H69.1413V22.7331H70.0883V30.0259ZM72.6002 30.1347C71.7077 30.1347 71.207 29.6231 71.207 28.9265C71.207 28.219 71.7403 27.7727 72.4914 27.4353L74.3962 26.5863C74.3636 25.9658 74.0697 25.5087 73.2424 25.5087C72.4914 25.5087 71.9907 25.9441 71.7186 26.521L71.0764 25.857C71.392 25.3128 72.1757 24.6488 73.3513 24.6488C74.6466 24.6488 75.3432 25.4216 75.3432 26.6734V28.8394C75.3432 29.0898 75.4412 29.166 75.6371 29.166H75.9745V30.0259H75.365C74.8207 30.0259 74.4289 29.7646 74.4289 29.0245V28.6544C74.2547 29.351 73.6887 30.1347 72.6002 30.1347ZM72.1648 28.7741C72.1648 29.1333 72.4152 29.351 72.905 29.351C73.7976 29.351 74.4289 28.7632 74.4289 28.0013V27.272L72.8941 27.9904C72.3934 28.2299 72.1648 28.4476 72.1648 28.7741ZM78.0181 30.0259H77.0711V24.7576H78.0181V26.1618C78.2249 25.3454 78.7909 24.6488 79.8249 24.6488C80.859 24.6488 81.5012 25.2692 81.5012 26.3903V30.0259H80.5651V26.6189C80.5651 25.9332 80.293 25.4543 79.4004 25.4543C78.3881 25.4543 78.0181 26.1618 78.0181 27.0434V30.0259ZM85.0734 30.1347C83.5604 30.1347 82.5916 29.068 82.5916 27.3918C82.5916 25.7264 83.5604 24.6488 85.0734 24.6488C86.4449 24.6488 87.2503 25.4434 87.5007 26.4992L86.5755 26.8802C86.4666 26.042 86.0312 25.4434 85.0843 25.4434C84.1264 25.4434 83.5495 26.1509 83.5495 27.3918C83.5495 28.6326 84.1264 29.351 85.0843 29.351C86.0312 29.351 86.4666 28.7415 86.5755 27.9033L87.5007 28.2843C87.2503 29.3401 86.4449 30.1347 85.0734 30.1347ZM90.7722 30.1347C89.281 30.1347 88.2469 29.068 88.2469 27.3918C88.2469 25.7264 89.2701 24.6488 90.7178 24.6488C92.209 24.6488 93.1124 25.6393 93.1124 27.1849C93.1124 27.3482 93.0906 27.5115 93.0689 27.6094H89.1612C89.2156 28.7197 89.8361 29.351 90.7722 29.351C91.828 29.351 92.2525 28.7741 92.4593 28.317L93.0362 28.9701C92.6444 29.6014 91.9151 30.1347 90.7722 30.1347ZM90.7178 25.4434C89.8687 25.4434 89.3027 25.9441 89.183 26.9237H92.2634C92.1654 25.955 91.5994 25.4434 90.7178 25.4434Z" fill="#5C687D"/>
<path d="M33.082 71.5087H31.3405V69.2198C28.6286 68.971 26.2402 67.7768 25.0957 65.3137L27.0861 63.2984C27.8076 65.2639 29.5989 66.2591 31.3405 66.5826V61.8803L30.4697 61.6813C28.1061 61.1837 25.5933 60.1139 25.5933 56.9542C25.5933 53.8193 28.3052 52.1275 31.3405 52.1275V49.8635H33.082V52.2519C35.371 52.6251 37.1623 53.8193 38.1326 55.6853L36.0178 57.7005C35.3958 56.2824 34.326 55.4116 33.082 55.0135V59.5665L33.3557 59.6411C36.0178 60.288 38.4063 61.333 38.4063 64.5175C38.4063 67.3538 36.1671 69.0456 33.082 69.2447V71.5087ZM28.5291 56.7551C28.5291 58.223 29.6735 58.7455 31.3405 59.1436V54.7399H31.2658C29.6735 54.7399 28.5291 55.4863 28.5291 56.7551ZM35.5451 64.5673C35.5451 63.2238 34.6246 62.7013 33.082 62.2784V66.6572C34.4753 66.5328 35.5451 65.9108 35.5451 64.5673ZM58.5583 69.0208H46.641V66.8811L52.3882 61.4076C54.0054 59.8402 55.1498 58.5713 55.1498 57.0039C55.1498 55.8097 54.4532 54.7896 52.836 54.7896C50.373 54.7896 48.8304 56.357 48.9797 59.5665L46.6161 57.8747C46.5415 54.5408 49.2534 52.1026 53.0848 52.1026C56.4436 52.1026 58.0856 54.093 58.0856 56.8298C58.0856 59.5168 55.6972 61.8306 53.9307 63.2984L51.6169 65.3386L49.6763 66.7816L52.1643 66.5328H58.5583V69.0208ZM73.3549 69.0208H61.4376V66.8811L67.1848 61.4076C68.8019 59.8402 69.9464 58.5713 69.9464 57.0039C69.9464 55.8097 69.2498 54.7896 67.6326 54.7896C65.1695 54.7896 63.627 56.357 63.7763 59.5665L61.4127 57.8747C61.3381 54.5408 64.0499 52.1026 67.8814 52.1026C71.2401 52.1026 72.8822 54.093 72.8822 56.8298C72.8822 59.5168 70.4937 61.8306 68.7273 63.2984L66.4135 65.3386L64.4729 66.7816L66.9608 66.5328H73.3549V69.0208ZM76.3041 71.9068L75.7319 70.4389C76.6275 70.3394 77.1749 70.1652 77.1749 69.3442V69.0208H75.707V65.4879H78.8916V69.0705C78.8916 70.7374 78.1701 71.7077 76.3041 71.9068ZM87.6157 69.2695C83.2867 69.2695 81.2217 67.3787 81.2217 64.6917C81.2217 62.975 82.192 61.2086 84.9785 60.5617C82.7891 60.1885 81.7442 58.5962 81.7442 56.7054C81.7442 54.1676 83.7843 52.1026 87.6157 52.1026C91.4223 52.1026 93.4873 54.1676 93.4873 56.6805C93.4873 58.6211 92.3429 60.1885 90.1286 60.5617C92.94 61.2086 94.0098 62.975 94.0098 64.6917C94.0098 67.3787 91.9448 69.2695 87.6157 69.2695ZM87.6157 59.5416C89.4568 59.5416 90.5018 58.5216 90.5018 57.1283C90.5018 55.8595 89.6808 54.715 87.6157 54.715C85.5507 54.715 84.7297 55.8595 84.7297 57.1283C84.7297 58.5216 85.5507 59.5416 87.6157 59.5416ZM87.6157 66.6572C90.1286 66.6572 90.7755 65.463 90.7755 64.1195C90.7755 62.6516 89.7305 61.5071 87.6157 61.5071C85.501 61.5071 84.456 62.6516 84.456 64.1195C84.456 65.463 85.1029 66.6572 87.6157 66.6572ZM102.792 69.2695C99.6073 69.2695 97.2438 67.5777 96.3979 65.4132L98.637 63.2487C99.2092 65.3137 100.677 66.5577 102.817 66.5577C104.832 66.5577 105.927 65.3635 105.927 63.4228C105.927 61.0842 104.359 60.1387 102.643 60.1387C101.05 60.1387 99.9308 60.8105 99.7815 61.8803L99.7566 62.1042L97.0198 61.8306L97.5672 52.3514H107.693V54.9389H100.254L99.8561 60.7856C100.379 59.2928 101.722 58.0986 103.936 58.0986C107.096 58.0986 108.937 60.2383 108.937 63.5472C108.937 66.9806 106.574 69.2695 102.792 69.2695ZM117.953 69.2447C113.3 69.2447 110.937 65.5625 110.937 60.6612C110.937 55.7848 113.3 52.1026 117.953 52.1026C122.605 52.1026 124.944 55.7848 124.944 60.6612C124.944 65.5625 122.605 69.2447 117.953 69.2447ZM117.953 66.5577C120.938 66.5577 122.008 64.1692 122.008 60.6612C122.008 57.1781 120.938 54.7648 117.953 54.7648C114.992 54.7648 113.898 57.1781 113.898 60.6612C113.898 64.1692 114.992 66.5577 117.953 66.5577ZM130.011 69.0208H126.827V65.4879H130.011V69.0208ZM138.896 69.2447C134.244 69.2447 131.88 65.5625 131.88 60.6612C131.88 55.7848 134.244 52.1026 138.896 52.1026C143.549 52.1026 145.888 55.7848 145.888 60.6612C145.888 65.5625 143.549 69.2447 138.896 69.2447ZM138.896 66.5577C141.882 66.5577 142.952 64.1692 142.952 60.6612C142.952 57.1781 141.882 54.7648 138.896 54.7648C135.936 54.7648 134.841 57.1781 134.841 60.6612C134.841 64.1692 135.936 66.5577 138.896 66.5577ZM155.151 69.2447C150.498 69.2447 148.135 65.5625 148.135 60.6612C148.135 55.7848 150.498 52.1026 155.151 52.1026C159.803 52.1026 162.142 55.7848 162.142 60.6612C162.142 65.5625 159.803 69.2447 155.151 69.2447ZM155.151 66.5577C158.136 66.5577 159.206 64.1692 159.206 60.6612C159.206 57.1781 158.136 54.7648 155.151 54.7648C152.19 54.7648 151.095 57.1781 151.095 60.6612C151.095 64.1692 152.19 66.5577 155.151 66.5577Z" fill="#141414"/>
<g clip-path="url(#clip0_9915_755)">
<path d="M176.002 62.0208C176.002 62.0208 178.555 56.9148 183.023 56.9148C187.491 56.9148 190.044 62.0208 190.044 62.0208C190.044 62.0208 187.491 67.1268 183.023 67.1268C178.555 67.1268 176.002 62.0208 176.002 62.0208Z" stroke="#3B3A3A" stroke-width="1.0212" stroke-linecap="round" stroke-linejoin="round"/>
<path d="M183.023 63.9356C184.08 63.9356 184.938 63.0783 184.938 62.0208C184.938 60.9633 184.08 60.106 183.023 60.106C181.965 60.106 181.108 60.9633 181.108 62.0208C181.108 63.0783 181.965 63.9356 183.023 63.9356Z" stroke="#3B3A3A" stroke-width="1.0212" stroke-linecap="round" stroke-linejoin="round"/>
</g>
<g filter="url(#filter1_d_9915_755)">
<rect x="209.342" y="21.0259" width="67.5393" height="24.8796" rx="12.4398" fill="#545358" shape-rendering="crispEdges"/>
<path d="M231.09 31.5941C231.09 30.4808 229.707 29.5784 228.001 29.5784C226.296 29.5784 224.913 30.4808 224.913 31.5941C224.913 32.7073 225.755 33.3218 228.001 33.3218C230.248 33.3218 231.371 33.8977 231.371 35.3375C231.371 36.7773 229.862 37.3532 228.001 37.3532C226.141 37.3532 224.632 36.4508 224.632 35.3375" stroke="white" stroke-width="0.777487" stroke-linecap="round"/>
<path d="M228.261 28.5417V29.4281M228.261 38.3899V37.5036" stroke="white" stroke-width="0.777487" stroke-linecap="round" stroke-linejoin="round"/>
<path d="M244.034 36.8986H243.549V36.0309C242.55 35.9469 241.636 35.4711 241.272 34.4262L241.748 34.0156C242.009 34.9486 242.802 35.3685 243.549 35.4618V33.092L243.176 33.008C242.299 32.8028 241.459 32.4202 241.459 31.3286C241.459 30.2184 242.42 29.6306 243.474 29.6306C243.502 29.6306 243.521 29.6306 243.549 29.6306V28.7816H244.034V29.6773C244.902 29.8172 245.545 30.3024 245.844 31.0861L245.331 31.4966C245.107 30.8155 244.65 30.4143 244.034 30.2744V32.5975L244.109 32.6162C245.069 32.8401 245.937 33.2133 245.937 34.3608C245.937 35.4058 245.107 35.9936 244.034 36.0495V36.8986ZM243.371 32.4389L243.549 32.4855V30.2091C243.521 30.2091 243.493 30.2091 243.465 30.2091C242.709 30.2091 242.103 30.6009 242.103 31.282C242.103 31.9631 242.56 32.243 243.371 32.4389ZM245.321 34.3795C245.321 33.6891 244.874 33.4185 244.034 33.2039V35.4804C244.734 35.4338 245.321 35.1166 245.321 34.3795ZM249.459 36.0589C247.873 36.0589 247.126 35.2192 247.126 33.3719V29.7146H247.742V33.3719C247.742 34.8553 248.237 35.4804 249.468 35.4804C250.709 35.4804 251.194 34.8553 251.194 33.3719V29.7146H251.81V33.3719C251.81 35.2192 251.082 36.0589 249.459 36.0589ZM255.401 36.0495C254.272 36.0495 253.19 35.5831 252.789 34.4262L253.265 34.0156C253.563 35.0886 254.58 35.4804 255.401 35.4804C256.166 35.4804 256.838 35.1725 256.838 34.3795C256.838 33.6424 256.325 33.3812 255.373 33.1573L254.692 33.008C253.815 32.8028 252.975 32.4202 252.975 31.3286C252.975 30.2184 253.936 29.6306 254.991 29.6306C256.138 29.6306 256.997 30.1438 257.36 31.0861L256.847 31.4966C256.558 30.6196 255.886 30.2091 254.981 30.2091C254.226 30.2091 253.619 30.6009 253.619 31.282C253.619 31.9631 254.076 32.243 254.888 32.4389L255.625 32.6162C256.586 32.8401 257.454 33.2133 257.454 34.3608C257.454 35.4524 256.549 36.0495 255.401 36.0495ZM260.652 35.9656H258.59V29.7146H260.652C262.621 29.7146 263.591 30.8622 263.591 32.8401C263.591 34.818 262.621 35.9656 260.652 35.9656ZM260.568 30.2557H259.206V35.4244H260.568C262.117 35.4244 262.966 34.6501 262.966 32.8401C262.966 31.0301 262.117 30.2557 260.568 30.2557Z" fill="white"/>
<path d="M244.034 36.8986H243.549V36.0309C242.55 35.9469 241.636 35.4711 241.272 34.4262L241.748 34.0156C242.009 34.9486 242.802 35.3685 243.549 35.4618V33.092L243.176 33.008C242.299 32.8028 241.459 32.4202 241.459 31.3286C241.459 30.2184 242.42 29.6306 243.474 29.6306C243.502 29.6306 243.521 29.6306 243.549 29.6306V28.7816H244.034V29.6773C244.902 29.8172 245.545 30.3024 245.844 31.0861L245.331 31.4966C245.107 30.8155 244.65 30.4143 244.034 30.2744V32.5975L244.109 32.6162C245.069 32.8401 245.937 33.2133 245.937 34.3608C245.937 35.4058 245.107 35.9936 244.034 36.0495V36.8986ZM243.371 32.4389L243.549 32.4855V30.2091C243.521 30.2091 243.493 30.2091 243.465 30.2091C242.709 30.2091 242.103 30.6009 242.103 31.282C242.103 31.9631 242.56 32.243 243.371 32.4389ZM245.321 34.3795C245.321 33.6891 244.874 33.4185 244.034 33.2039V35.4804C244.734 35.4338 245.321 35.1166 245.321 34.3795ZM249.459 36.0589C247.873 36.0589 247.126 35.2192 247.126 33.3719V29.7146H247.742V33.3719C247.742 34.8553 248.237 35.4804 249.468 35.4804C250.709 35.4804 251.194 34.8553 251.194 33.3719V29.7146H251.81V33.3719C251.81 35.2192 251.082 36.0589 249.459 36.0589ZM255.401 36.0495C254.272 36.0495 253.19 35.5831 252.789 34.4262L253.265 34.0156C253.563 35.0886 254.58 35.4804 255.401 35.4804C256.166 35.4804 256.838 35.1725 256.838 34.3795C256.838 33.6424 256.325 33.3812 255.373 33.1573L254.692 33.008C253.815 32.8028 252.975 32.4202 252.975 31.3286C252.975 30.2184 253.936 29.6306 254.991 29.6306C256.138 29.6306 256.997 30.1438 257.36 31.0861L256.847 31.4966C256.558 30.6196 255.886 30.2091 254.981 30.2091C254.226 30.2091 253.619 30.6009 253.619 31.282C253.619 31.9631 254.076 32.243 254.888 32.4389L255.625 32.6162C256.586 32.8401 257.454 33.2133 257.454 34.3608C257.454 35.4524 256.549 36.0495 255.401 36.0495ZM260.652 35.9656H258.59V29.7146H260.652C262.621 29.7146 263.591 30.8622 263.591 32.8401C263.591 34.818 262.621 35.9656 260.652 35.9656ZM260.568 30.2557H259.206V35.4244H260.568C262.117 35.4244 262.966 34.6501 262.966 32.8401C262.966 31.0301 262.117 30.2557 260.568 30.2557Z" fill="white"/>
<path d="M244.034 36.8986H243.549V36.0309C242.55 35.9469 241.636 35.4711 241.272 34.4262L241.748 34.0156C242.009 34.9486 242.802 35.3685 243.549 35.4618V33.092L243.176 33.008C242.299 32.8028 241.459 32.4202 241.459 31.3286C241.459 30.2184 242.42 29.6306 243.474 29.6306C243.502 29.6306 243.521 29.6306 243.549 29.6306V28.7816H244.034V29.6773C244.902 29.8172 245.545 30.3024 245.844 31.0861L245.331 31.4966C245.107 30.8155 244.65 30.4143 244.034 30.2744V32.5975L244.109 32.6162C245.069 32.8401 245.937 33.2133 245.937 34.3608C245.937 35.4058 245.107 35.9936 244.034 36.0495V36.8986ZM243.371 32.4389L243.549 32.4855V30.2091C243.521 30.2091 243.493 30.2091 243.465 30.2091C242.709 30.2091 242.103 30.6009 242.103 31.282C242.103 31.9631 242.56 32.243 243.371 32.4389ZM245.321 34.3795C245.321 33.6891 244.874 33.4185 244.034 33.2039V35.4804C244.734 35.4338 245.321 35.1166 245.321 34.3795ZM249.459 36.0589C247.873 36.0589 247.126 35.2192 247.126 33.3719V29.7146H247.742V33.3719C247.742 34.8553 248.237 35.4804 249.468 35.4804C250.709 35.4804 251.194 34.8553 251.194 33.3719V29.7146H251.81V33.3719C251.81 35.2192 251.082 36.0589 249.459 36.0589ZM255.401 36.0495C254.272 36.0495 253.19 35.5831 252.789 34.4262L253.265 34.0156C253.563 35.0886 254.58 35.4804 255.401 35.4804C256.166 35.4804 256.838 35.1725 256.838 34.3795C256.838 33.6424 256.325 33.3812 255.373 33.1573L254.692 33.008C253.815 32.8028 252.975 32.4202 252.975 31.3286C252.975 30.2184 253.936 29.6306 254.991 29.6306C256.138 29.6306 256.997 30.1438 257.36 31.0861L256.847 31.4966C256.558 30.6196 255.886 30.2091 254.981 30.2091C254.226 30.2091 253.619 30.6009 253.619 31.282C253.619 31.9631 254.076 32.243 254.888 32.4389L255.625 32.6162C256.586 32.8401 257.454 33.2133 257.454 34.3608C257.454 35.4524 256.549 36.0495 255.401 36.0495ZM260.652 35.9656H258.59V29.7146H260.652C262.621 29.7146 263.591 30.8622 263.591 32.8401C263.591 34.818 262.621 35.9656 260.652 35.9656ZM260.568 30.2557H259.206V35.4244H260.568C262.117 35.4244 262.966 34.6501 262.966 32.8401C262.966 31.0301 262.117 30.2557 260.568 30.2557Z" fill="white"/>
</g>
<g filter="url(#filter2_d_9915_755)">
<rect x="23.6597" y="96.6804" width="99.8645" height="31.4247" rx="15.7124" fill="white"/>
<rect x="24.0484" y="97.0692" width="99.087" height="30.6472" rx="15.3236" stroke="#EFEFF9" stroke-width="0.777487"/>
<path d="M45.6732 112.473H39.2907C39.2715 112.473 39.2515 112.465 39.2351 112.448C39.2188 112.432 39.2109 112.412 39.2109 112.393C39.2109 112.374 39.2188 112.354 39.2351 112.337C39.2515 112.321 39.2715 112.313 39.2907 112.313H45.6732C45.6925 112.313 45.7124 112.321 45.7288 112.337C45.7452 112.354 45.753 112.374 45.753 112.393C45.753 112.412 45.7452 112.432 45.7288 112.448C45.7124 112.465 45.6925 112.473 45.6732 112.473Z" fill="#292D32" stroke="#2F2F2F" stroke-width="0.638251"/>
<path d="M42.482 115.664C42.4627 115.664 42.4428 115.656 42.4264 115.639C42.41 115.623 42.4022 115.603 42.4022 115.584V109.201C42.4022 109.182 42.41 109.162 42.4264 109.146C42.4428 109.129 42.4627 109.122 42.482 109.122C42.5012 109.122 42.5212 109.129 42.5375 109.146C42.5539 109.162 42.5618 109.182 42.5618 109.201V115.584C42.5618 115.603 42.5539 115.623 42.5375 115.639C42.5212 115.656 42.5012 115.664 42.482 115.664Z" fill="#292D32" stroke="#2F2F2F" stroke-width="0.638251"/>
<path d="M57.0779 115.893H56.1309V108.6H61.0182V109.438H57.0779V112.05H60.3107V112.889H57.0779V115.893ZM63.3419 116.002C62.3079 116.002 61.6657 115.381 61.6657 114.271V110.625H62.6018V114.042C62.6018 114.717 62.8739 115.207 63.7665 115.207C64.7896 115.207 65.1597 114.489 65.1597 113.618V110.625H66.0958V115.893H65.1597V114.456C64.9638 115.283 64.3978 116.002 63.3419 116.002ZM68.481 115.893H67.534V110.625H68.481V112.029C68.6878 111.212 69.2538 110.516 70.2879 110.516C71.322 110.516 71.9642 111.136 71.9642 112.257V115.893H71.0281V112.486C71.0281 111.8 70.756 111.321 69.8634 111.321C68.8511 111.321 68.481 112.029 68.481 112.91V115.893ZM75.2098 116.023C73.8819 116.023 73.0546 114.935 73.0546 113.27C73.0546 111.604 73.8819 110.516 75.2098 110.516C76.2221 110.516 76.7228 111.191 76.9078 111.996V108.6H77.8548V115.893H76.9078V114.543C76.7228 115.349 76.2221 116.023 75.2098 116.023ZM74.0125 113.27C74.0125 114.619 74.6982 115.229 75.5255 115.229C76.5377 115.229 76.9078 114.521 76.9078 113.651V112.899C76.9078 112.029 76.5377 111.321 75.5255 111.321C74.6982 111.321 74.0125 111.931 74.0125 113.27ZM84.2075 115.893H83.1081L81.0835 108.6H82.172L83.2823 113.117L83.6415 115.011L84.0986 113.139L85.4157 108.6H86.613L87.9083 113.139L88.3546 115.011L88.7247 113.117L89.8567 108.6H90.9234L88.877 115.893H87.7777L86.4389 111.158L85.9926 109.384L85.5572 111.158L84.2075 115.893ZM92.5181 116.002C91.6255 116.002 91.1248 115.49 91.1248 114.793C91.1248 114.086 91.6582 113.64 92.4093 113.302L94.3141 112.453C94.2814 111.833 93.9876 111.376 93.1603 111.376C92.4093 111.376 91.9086 111.811 91.6364 112.388L90.9942 111.724C91.3099 111.18 92.0936 110.516 93.2692 110.516C94.5644 110.516 95.2611 111.289 95.2611 112.54V114.706C95.2611 114.957 95.359 115.033 95.555 115.033H95.8924V115.893H95.2828C94.7386 115.893 94.3468 115.632 94.3468 114.891V114.521C94.1726 115.218 93.6066 116.002 92.5181 116.002ZM92.0827 114.641C92.0827 115 92.3331 115.218 92.8229 115.218C93.7154 115.218 94.3468 114.63 94.3468 113.868V113.139L92.812 113.857C92.3113 114.097 92.0827 114.315 92.0827 114.641ZM97.9359 115.893H96.989V108.6H97.9359V115.893ZM100.306 115.893H99.3594V108.6H100.306V115.893ZM103.972 116.002C102.481 116.002 101.447 114.935 101.447 113.259C101.447 111.593 102.47 110.516 103.918 110.516C105.409 110.516 106.312 111.506 106.312 113.052C106.312 113.215 106.291 113.378 106.269 113.476H102.361C102.416 114.587 103.036 115.218 103.972 115.218C105.028 115.218 105.452 114.641 105.659 114.184L106.236 114.837C105.844 115.468 105.115 116.002 103.972 116.002ZM103.918 111.31C103.069 111.31 102.503 111.811 102.383 112.791H105.463C105.365 111.822 104.799 111.31 103.918 111.31ZM109.191 116.013C108.331 116.013 107.721 115.447 107.721 114.543V111.365H106.872V110.625H107.721V109.95L108.668 109.253V110.625H110.399V111.365H108.668V114.26C108.668 114.935 108.984 115.098 109.397 115.098C109.866 115.098 110.192 114.706 110.334 114.38L110.649 115.316C110.421 115.675 109.92 116.013 109.191 116.013Z" fill="black"/>
</g>
<g filter="url(#filter3_d_9915_755)">
<rect x="137.519" y="96.6804" width="90.8645" height="31.4247" rx="15.7124" fill="white"/>
<rect x="137.908" y="97.0692" width="90.087" height="30.6472" rx="15.3236" stroke="#EFEFF9" stroke-width="0.777487"/>
<path d="M156.341 118.11C153.187 118.11 150.623 115.547 150.623 112.393C150.623 109.239 153.187 106.675 156.341 106.675C156.559 106.675 156.74 106.856 156.74 107.074C156.74 107.292 156.559 107.473 156.341 107.473C153.628 107.473 151.421 109.68 151.421 112.393C151.421 115.105 153.628 117.313 156.341 117.313C159.053 117.313 161.261 115.105 161.261 112.393C161.261 112.175 161.442 111.994 161.66 111.994C161.878 111.994 162.059 112.175 162.059 112.393C162.059 115.547 159.495 118.11 156.341 118.11Z" fill="#292D32"/>
<path d="M156.873 112.26C156.772 112.26 156.671 112.223 156.591 112.143C156.437 111.989 156.437 111.733 156.591 111.579L160.952 107.218C161.107 107.063 161.362 107.063 161.516 107.218C161.67 107.372 161.67 107.627 161.516 107.782L157.155 112.143C157.075 112.223 156.974 112.26 156.873 112.26Z" fill="#292D32"/>
<path d="M161.66 110.042C161.442 110.042 161.261 109.861 161.261 109.643V107.473H159.091C158.873 107.473 158.692 107.292 158.692 107.074C158.692 106.856 158.873 106.675 159.091 106.675H161.66C161.878 106.675 162.059 106.856 162.059 107.074V109.643C162.059 109.861 161.878 110.042 161.66 110.042Z" fill="#292D32"/>
<path d="M172.6 115.893H171.5L169.476 108.6H170.564L171.674 113.117L172.034 115.011L172.491 113.139L173.808 108.6H175.005L176.3 113.139L176.747 115.011L177.117 113.117L178.249 108.6H179.316L177.269 115.893H176.17L174.831 111.158L174.385 109.384L173.949 111.158L172.6 115.893ZM181.098 109.776H180.151V108.6H181.098V109.776ZM181.098 115.893H180.151V110.625H181.098V115.893ZM184.285 116.013C183.425 116.013 182.816 115.447 182.816 114.543V111.365H181.967V110.625H182.816V109.95L183.763 109.253V110.625H185.493V111.365H183.763V114.26C183.763 114.935 184.078 115.098 184.492 115.098C184.96 115.098 185.286 114.706 185.428 114.38L185.744 115.316C185.515 115.675 185.014 116.013 184.285 116.013ZM187.625 115.893H186.678V108.6H187.625V112.029C187.832 111.212 188.398 110.516 189.432 110.516C190.466 110.516 191.108 111.136 191.108 112.257V115.893H190.172V112.486C190.172 111.8 189.9 111.321 189.007 111.321C187.995 111.321 187.625 112.029 187.625 112.91V115.893ZM194.354 116.023C193.026 116.023 192.199 114.935 192.199 113.27C192.199 111.604 193.026 110.516 194.354 110.516C195.366 110.516 195.867 111.191 196.052 111.996V108.6H196.999V115.893H196.052V114.543C195.867 115.349 195.366 116.023 194.354 116.023ZM193.156 113.27C193.156 114.619 193.842 115.229 194.669 115.229C195.682 115.229 196.052 114.521 196.052 113.651V112.899C196.052 112.029 195.682 111.321 194.669 111.321C193.842 111.321 193.156 111.931 193.156 113.27ZM199.381 115.893H198.434V110.625H199.381V112.029C199.588 111.212 200.132 110.505 201.025 110.505C201.591 110.505 202.135 110.908 202.135 111.648C202.135 112.094 202.016 112.421 201.928 112.551H200.894C201.069 112.399 201.21 112.072 201.21 111.778C201.21 111.474 201.047 111.212 200.666 111.212C199.991 111.212 199.381 112.007 199.381 112.91V115.893ZM204.062 116.002C203.169 116.002 202.669 115.49 202.669 114.793C202.669 114.086 203.202 113.64 203.953 113.302L205.858 112.453C205.825 111.833 205.531 111.376 204.704 111.376C203.953 111.376 203.452 111.811 203.18 112.388L202.538 111.724C202.854 111.18 203.637 110.516 204.813 110.516C206.108 110.516 206.805 111.289 206.805 112.54V114.706C206.805 114.957 206.903 115.033 207.099 115.033H207.436V115.893H206.827C206.282 115.893 205.89 115.632 205.89 114.891V114.521C205.716 115.218 205.15 116.002 204.062 116.002ZM203.626 114.641C203.626 115 203.877 115.218 204.367 115.218C205.259 115.218 205.89 114.63 205.89 113.868V113.139L204.356 113.857C203.855 114.097 203.626 114.315 203.626 114.641ZM210.302 115.893H209.072L207.7 110.625H208.756L209.442 113.868L209.692 115.207L210.019 113.868L210.976 110.625H212.141L213.088 113.868L213.426 115.207L213.676 113.868L214.351 110.625H215.407L214.046 115.893H212.805L211.902 112.812L211.564 111.408L211.205 112.812L210.302 115.893Z" fill="black"/>
</g>
<circle cx="266.515" cy="125.911" r="2.19458" fill="#ACDB7C"/>
<circle cx="273.831" cy="125.911" r="2.19458" fill="#D9D9D9"/>
<circle cx="281.146" cy="125.911" r="2.19458" fill="#D9D9D9"/>
</g>
<defs>
<filter id="filter0_d_9915_755" x="0.583643" y="0.158032" width="305.833" height="153.445" filterUnits="userSpaceOnUse" color-interpolation-filters="sRGB">
<feFlood flood-opacity="0" result="BackgroundImageFix"/>
<feColorMatrix in="SourceAlpha" type="matrix" values="0 0 0 0 0 0 0 0 0 0 0 0 0 0 0 0 0 0 127 0" result="hardAlpha"/>
<feOffset dy="2.20818"/>
<feGaussianBlur stdDeviation="2.20818"/>
<feComposite in2="hardAlpha" operator="out"/>
<feColorMatrix type="matrix" values="0 0 0 0 0 0 0 0 0 0 0 0 0 0 0 0 0 0 0.12 0"/>
<feBlend mode="normal" in2="BackgroundImageFix" result="effect1_dropShadow_9915_755"/>
<feBlend mode="normal" in="SourceGraphic" in2="effect1_dropShadow_9915_755" result="shape"/>
</filter>
<filter id="filter1_d_9915_755" x="206.232" y="21.0259" width="73.7591" height="31.0995" filterUnits="userSpaceOnUse" color-interpolation-filters="sRGB">
<feFlood flood-opacity="0" result="BackgroundImageFix"/>
<feColorMatrix in="SourceAlpha" type="matrix" values="0 0 0 0 0 0 0 0 0 0 0 0 0 0 0 0 0 0 127 0" result="hardAlpha"/>
<feOffset dy="3.10995"/>
<feGaussianBlur stdDeviation="1.55497"/>
<feComposite in2="hardAlpha" operator="out"/>
<feColorMatrix type="matrix" values="0 0 0 0 0 0 0 0 0 0 0 0 0 0 0 0 0 0 0.08 0"/>
<feBlend mode="normal" in2="BackgroundImageFix" result="effect1_dropShadow_9915_755"/>
<feBlend mode="normal" in="SourceGraphic" in2="effect1_dropShadow_9915_755" result="shape"/>
</filter>
<filter id="filter2_d_9915_755" x="22.1047" y="96.6804" width="102.974" height="34.5348" filterUnits="userSpaceOnUse" color-interpolation-filters="sRGB">
<feFlood flood-opacity="0" result="BackgroundImageFix"/>
<feColorMatrix in="SourceAlpha" type="matrix" values="0 0 0 0 0 0 0 0 0 0 0 0 0 0 0 0 0 0 127 0" result="hardAlpha"/>
<feOffset dy="1.55497"/>
<feGaussianBlur stdDeviation="0.777487"/>
<feComposite in2="hardAlpha" operator="out"/>
<feColorMatrix type="matrix" values="0 0 0 0 0 0 0 0 0 0 0 0 0 0 0 0 0 0 0.04 0"/>
<feBlend mode="normal" in2="BackgroundImageFix" result="effect1_dropShadow_9915_755"/>
<feBlend mode="normal" in="SourceGraphic" in2="effect1_dropShadow_9915_755" result="shape"/>
</filter>
<filter id="filter3_d_9915_755" x="135.964" y="96.6804" width="93.9744" height="34.5348" filterUnits="userSpaceOnUse" color-interpolation-filters="sRGB">
<feFlood flood-opacity="0" result="BackgroundImageFix"/>
<feColorMatrix in="SourceAlpha" type="matrix" values="0 0 0 0 0 0 0 0 0 0 0 0 0 0 0 0 0 0 127 0" result="hardAlpha"/>
<feOffset dy="1.55497"/>
<feGaussianBlur stdDeviation="0.777487"/>
<feComposite in2="hardAlpha" operator="out"/>
<feColorMatrix type="matrix" values="0 0 0 0 0 0 0 0 0 0 0 0 0 0 0 0 0 0 0.04 0"/>
<feBlend mode="normal" in2="BackgroundImageFix" result="effect1_dropShadow_9915_755"/>
<feBlend mode="normal" in="SourceGraphic" in2="effect1_dropShadow_9915_755" result="shape"/>
</filter>
<clipPath id="clip0_9915_755">
<rect width="15.318" height="15.318" fill="white" transform="translate(175.364 54.3618)"/>
</clipPath>
</defs>
</svg>
