<svg width="110" height="75" viewBox="0 0 110 75" fill="none" xmlns="http://www.w3.org/2000/svg">
<g opacity="0.6">
<path d="M70.7888 66.2495L70.4168 65.5056C69.2388 62.2823 70.8508 58.7491 74.0746 57.5713C74.1366 57.5713 74.1986 57.5093 74.3226 57.5093L103.027 47.7774V21.4329C103.027 18.1475 100.981 15.2342 97.9435 14.0564C90.6278 11.267 77.4845 6.30802 73.9506 5.13026C69.9828 3.82853 70.4788 -0.696515 70.9128 -2.49414C67.6889 -0.634528 65.643 2.71277 65.395 6.37V57.8813C65.395 60.2368 66.263 62.4683 67.8749 64.2039C68.6189 65.1337 69.6728 65.8156 70.7888 66.2495Z" fill="#AFE274"/>
<path opacity="0.53" d="M102.963 47.7773V66.6864C102.963 71.0262 99.4289 74.5601 95.0891 74.5601C94.1591 74.5601 93.2911 74.3741 92.4232 74.0641L70.7862 66.2525L70.4142 65.5085C69.2363 62.2846 70.8482 58.7509 74.072 57.5729C74.134 57.5729 74.196 57.5109 74.32 57.5109L102.963 47.7773Z" fill="#AFE274"/>
<path d="M65.2697 13.4365V56.5175C65.2077 48.9551 65.2697 25.338 65.2697 13.4365Z" fill="#AFE274"/>
<path opacity="0.78" d="M128.57 -14.7067V34.821C128.57 37.4244 126.958 39.7179 124.478 40.5238L102.965 47.7762V21.4317C102.965 18.1464 100.919 15.233 97.8811 14.0553C90.5655 11.2659 77.4221 6.30689 73.8883 5.12914C69.9205 3.82741 70.4164 -0.697643 70.8504 -2.49527C71.0984 -2.61924 71.2844 -2.7432 71.5324 -2.86717L120.51 -20.4095C123.672 -21.5253 127.082 -19.9136 128.198 -16.7523C128.446 -16.1324 128.57 -15.3886 128.57 -14.7067Z" fill="#AFE274"/>
<path d="M57.8933 -12.4736L58.2652 -11.7298C59.4432 -8.50649 57.8313 -4.9732 54.6074 -3.79544C54.5454 -3.79544 54.4834 -3.73347 54.3594 -3.73347L25.6548 5.9985V32.343C25.6548 35.6283 27.7007 38.5417 30.7385 39.7194C38.1162 42.5089 51.1976 47.4678 54.7314 48.6456C58.6992 49.9473 58.2032 54.4724 57.7693 56.27C60.9931 54.4104 63.039 51.1251 63.287 47.4059V-4.16739C63.287 -6.5229 62.357 -8.75444 60.8071 -10.4901C60.0012 -11.3579 59.0092 -12.1017 57.8933 -12.4736Z" fill="#AFE274"/>
<path opacity="0.53" d="M25.6548 6.00248V-12.9066C25.6548 -17.2464 29.1886 -20.7803 33.5284 -20.7803C34.4584 -20.7803 35.3263 -20.5943 36.1943 -20.2843L57.8933 -12.4726L58.2652 -11.7287C59.4432 -8.50487 57.8313 -4.971 54.6074 -3.79306C54.5454 -3.79306 54.4834 -3.73108 54.3594 -3.73108L25.6548 6.00248Z" fill="#AFE274"/>
<path opacity="0.78" d="M0.0488281 68.481V18.9533C0.0488281 16.3499 1.72275 14.0564 4.14064 13.2505L25.6536 5.99805V32.3426C25.6536 35.6279 27.6995 38.5412 30.7374 39.719C38.115 42.5084 51.1964 47.4674 54.7303 48.6451C58.6981 49.9469 58.2021 54.4719 57.7681 56.2695C57.5201 56.3935 57.3341 56.5175 57.0861 56.6415L8.10845 74.1838C5.00859 75.2995 1.53676 73.6879 0.420814 70.5886C0.172826 69.9067 0.0488281 69.2248 0.0488281 68.481Z" fill="#AFE274"/>
</g>
</svg>
